<svg width="24" height="24" viewBox="0 0 24 24" fill="none" xmlns="http://www.w3.org/2000/svg">
<path d="M4.125 21.375C3.71077 21.375 3.375 21.0392 3.375 20.625V3.09375C3.375 1.38783 4.76283 0 6.46875 0H19.875C20.2892 0 20.625 0.335812 20.625 0.75V18C20.625 18.4142 20.2892 18.75 19.875 18.75C19.4608 18.75 19.125 18.4142 19.125 18V1.5H6.46875C5.58994 1.5 4.875 2.21494 4.875 3.09375V20.625C4.875 21.0392 4.53923 21.375 4.125 21.375Z" fill="#808080"/>
<path d="M19.875 24H6.75C4.88902 24 3.375 22.486 3.375 20.625C3.375 18.764 4.88902 17.25 6.75 17.25H19.875C20.2892 17.25 20.625 17.5858 20.625 18C20.625 18.4142 20.2892 18.75 19.875 18.75H6.75C5.71613 18.75 4.875 19.5911 4.875 20.625C4.875 21.6589 5.71613 22.5 6.75 22.5H19.875C20.2892 22.5 20.625 22.8358 20.625 23.25C20.625 23.6642 20.2892 24 19.875 24Z" fill="#808080"/>
<path d="M19.875 21.375H6.75C6.33577 21.375 6 21.0392 6 20.625C6 20.2108 6.33577 19.875 6.75 19.875H19.875C20.2892 19.875 20.625 20.2108 20.625 20.625C20.625 21.0392 20.2892 21.375 19.875 21.375Z" fill="#808080"/>
<path d="M7.5 18.75C7.08577 18.75 6.75 18.4142 6.75 18V0.75C6.75 0.335812 7.08577 0 7.5 0C7.91423 0 8.25 0.335812 8.25 0.75V18C8.25 18.4142 7.91423 18.75 7.5 18.75Z" fill="#808080"/>
</svg>
