<svg width="24" height="25" viewBox="0 0 24 25" fill="none" xmlns="http://www.w3.org/2000/svg">
<path d="M5.47502 16.2821C6.34642 16.6276 7.06886 17.268 7.51628 18.0917C7.9637 18.9154 8.10768 19.87 7.92311 20.7891C7.73853 21.7081 7.23712 22.5331 6.50636 23.1202C5.77561 23.7072 4.86191 24.0191 3.92471 24.0013C2.98751 23.9835 2.08632 23.6371 1.3784 23.0227C0.670471 22.4083 0.200763 21.5648 0.0512367 20.6395C-0.0982898 19.7141 0.0818594 18.7656 0.560249 17.9595C1.03864 17.1534 1.78489 16.5409 2.66878 16.2288V7.77678C1.77893 7.46229 1.02891 6.84333 0.5513 6.02931C0.0736863 5.21529 -0.100768 4.25863 0.0587747 3.32842C0.218317 2.39821 0.701582 1.55436 1.42315 0.946011C2.14472 0.337666 3.05812 0.0040043 4.00191 0.0040043C4.9457 0.0040043 5.85911 0.337666 6.58067 0.946011C7.30224 1.55436 7.78551 2.39821 7.94505 3.32842C8.10459 4.25863 7.93014 5.21529 7.45252 6.02931C6.97491 6.84333 6.22489 7.46229 5.33504 7.77678V12.0028C6.44953 11.1656 7.83332 10.6697 9.33442 10.6697H14.6669C15.5443 10.6697 16.3973 10.3813 17.0947 9.84898C17.792 9.31662 18.2951 8.56978 18.5263 7.72346C17.6507 7.37672 16.9255 6.73218 16.4783 5.90333C16.0311 5.07447 15.8907 4.11444 16.0817 3.19223C16.2728 2.27003 16.783 1.44478 17.5227 0.861776C18.2623 0.278772 19.1839 -0.0246118 20.1252 0.00503602C21.0665 0.0346838 21.9672 0.395462 22.6687 1.02386C23.3702 1.65225 23.8275 2.50797 23.9601 3.44037C24.0928 4.37277 23.8922 5.32207 23.3938 6.12114C22.8953 6.92021 22.131 7.51783 21.2352 7.80878C20.9667 9.35611 20.1606 10.759 18.959 11.7701C17.7574 12.7813 16.2374 13.3358 14.6669 13.3359H9.33442C8.45707 13.3359 7.60404 13.6242 6.90667 14.1566C6.2093 14.689 5.70627 15.4358 5.47502 16.2821V16.2821ZM4.00191 18.6684C3.64834 18.6684 3.30926 18.8089 3.05925 19.0589C2.80924 19.3089 2.66878 19.648 2.66878 20.0016C2.66878 20.3551 2.80924 20.6942 3.05925 20.9442C3.30926 21.1942 3.64834 21.3347 4.00191 21.3347C4.35548 21.3347 4.69456 21.1942 4.94457 20.9442C5.19458 20.6942 5.33504 20.3551 5.33504 20.0016C5.33504 19.648 5.19458 19.3089 4.94457 19.0589C4.69456 18.8089 4.35548 18.6684 4.00191 18.6684ZM4.00191 2.67091C3.64834 2.67091 3.30926 2.81136 3.05925 3.06137C2.80924 3.31138 2.66878 3.65047 2.66878 4.00403C2.66878 4.3576 2.80924 4.69669 3.05925 4.9467C3.30926 5.19671 3.64834 5.33716 4.00191 5.33716C4.35548 5.33716 4.69456 5.19671 4.94457 4.9467C5.19458 4.69669 5.33504 4.3576 5.33504 4.00403C5.33504 3.65047 5.19458 3.31138 4.94457 3.06137C4.69456 2.81136 4.35548 2.67091 4.00191 2.67091ZM19.9994 2.67091C19.6459 2.67091 19.3068 2.81136 19.0568 3.06137C18.8068 3.31138 18.6663 3.65047 18.6663 4.00403C18.6663 4.3576 18.8068 4.69669 19.0568 4.9467C19.3068 5.19671 19.6459 5.33716 19.9994 5.33716C20.353 5.33716 20.6921 5.19671 20.9421 4.9467C21.1921 4.69669 21.3326 4.3576 21.3326 4.00403C21.3326 3.65047 21.1921 3.31138 20.9421 3.06137C20.6921 2.81136 20.353 2.67091 19.9994 2.67091Z" fill="#808080"/>
</svg>
