<svg width="24" height="24" viewBox="0 0 24 24" fill="none" xmlns="http://www.w3.org/2000/svg">
<path fill-rule="evenodd" clip-rule="evenodd" d="M16.2 12C16.2 12.5518 16.0914 13.0981 15.8803 13.6079C15.6692 14.1176 15.3599 14.5808 14.9698 14.971C14.5798 15.3611 14.1168 15.6706 13.6073 15.8818C13.0977 16.0929 12.5516 16.2016 12 16.2016C11.4484 16.2016 10.9023 16.0929 10.3927 15.8818C9.88316 15.6706 9.42016 15.3611 9.03015 14.971C8.64015 14.5808 8.33078 14.1176 8.11971 13.6079C7.90864 13.0981 7.8 12.5518 7.8 12C7.8 10.8857 8.2425 9.81697 9.03015 9.02902C9.81781 8.24107 10.8861 7.7984 12 7.7984C13.1139 7.7984 14.1822 8.24107 14.9698 9.02902C15.7575 9.81697 16.2 10.8857 16.2 12ZM17.9328 11.0997C17.7168 9.68042 16.9995 8.38562 15.911 7.45003C14.8226 6.51444 13.4351 6 12 6C10.5649 6 9.17741 6.51444 8.08896 7.45003C7.00052 8.38562 6.28325 9.68042 6.0672 11.0997H0.9C0.78181 11.0997 0.664778 11.1229 0.555585 11.1682C0.446392 11.2134 0.347177 11.2798 0.263604 11.3634C0.180031 11.447 0.113738 11.5462 0.0685083 11.6555C0.0232791 11.7647 0 11.8818 0 12C0 12.1182 0.0232791 12.2353 0.0685083 12.3445C0.113738 12.4538 0.180031 12.553 0.263604 12.6366C0.347177 12.7202 0.446392 12.7866 0.555585 12.8318C0.664778 12.8771 0.78181 12.9003 0.9 12.9003H6.0672C6.28325 14.3196 7.00052 15.6144 8.08896 16.55C9.17741 17.4856 10.5649 18 12 18C13.4351 18 14.8226 17.4856 15.911 16.55C16.9995 15.6144 17.7168 14.3196 17.9328 12.9003H23.1C23.2182 12.9003 23.3352 12.8771 23.4444 12.8318C23.5536 12.7866 23.6528 12.7202 23.7364 12.6366C23.82 12.553 23.8863 12.4538 23.9315 12.3445C23.9767 12.2353 24 12.1182 24 12C24 11.8818 23.9767 11.7647 23.9315 11.6555C23.8863 11.5462 23.82 11.447 23.7364 11.3634C23.6528 11.2798 23.5536 11.2134 23.4444 11.1682C23.3352 11.1229 23.2182 11.0997 23.1 11.0997H17.9328Z" fill="#808080"/>
</svg>
